<svg width="404" height="57" viewBox="0 0 404 57" fill="none" xmlns="http://www.w3.org/2000/svg">
<path d="M0 9.82758C0 4.39996 4.47715 0 10 0H87C92.5229 0 97 4.39996 97 9.82759V47.1724C97 52.6 92.5229 57 87 57H10C4.47715 57 0 52.6 0 47.1724V9.82758Z" fill="#A50000"/>
<path d="M44.7445 48.1552V38.4082H24.9655C24.3385 38.4082 24.2815 38.0721 24.2815 37.848C24.2815 37.5119 24.5665 37.3438 24.8515 37.0638L41.7805 21.2109C43.5475 19.5864 45.1435 17.9619 45.1435 14.1527C45.1435 9.72734 42.3505 8.9431 39.6145 8.9431H8.66348V18.6901H26.2195C26.8465 18.6901 27.2455 18.7461 27.2455 19.1382C27.2455 19.5864 26.9035 19.9225 26.6185 20.1466L10.7725 34.9911C9.17648 36.5036 6.89648 39.0804 6.89648 43.0016C6.89648 48.1552 11.7985 48.1552 14.0785 48.1552H44.7445Z" fill="white"/>
<path d="M48.205 48.1552H61.087V21.1549C61.087 19.4743 61.885 18.6901 63.595 18.6901H70.948C74.368 18.6901 75.508 19.5864 75.508 22.9474C75.508 26.3084 74.368 27.3728 70.948 27.3728H69.01C65.59 27.3728 63.253 28.4371 63.253 31.7981V32.6384C63.253 34.8791 64.678 36.2235 65.989 37.96L73.684 48.1552H89.188L77.788 36.4476V36.2235H79.498C87.478 36.2235 88.39 27.8769 88.39 22.2752C88.39 13.8726 86.11 8.9431 76.99 8.9431H54.475C50.485 8.9431 48.205 11.1838 48.205 15.105V48.1552Z" fill="white"/>
<path fill-rule="evenodd" clip-rule="evenodd" d="M86.5 15.7241C90.0899 15.7241 93 12.8642 93 9.33621C93 5.80825 90.0899 2.94828 86.5 2.94828C82.9101 2.94828 80 5.80825 80 9.33621C80 12.8642 82.9101 15.7241 86.5 15.7241ZM86.5 17.6897C91.1944 17.6897 95 13.9497 95 9.33621C95 4.72272 91.1944 0.982759 86.5 0.982759C81.8056 0.982759 78 4.72272 78 9.33621C78 13.9497 81.8056 17.6897 86.5 17.6897Z" fill="white"/>
<path d="M84.445 7.47481L88.4048 11.3663L87.4883 12.2669L84.2639 9.09813L83.472 9.87643L82.7366 9.15372L84.445 7.47481Z" fill="white"/>
<path d="M91.3045 7.04895L92.0512 7.78278L89.0587 10.7237L88.4647 10.1399L88.5496 7.22129C88.5571 6.90997 88.5345 6.67277 88.4817 6.5097C88.4251 6.34292 88.3422 6.20579 88.2328 6.09831C88.0744 5.94265 87.899 5.87779 87.7067 5.90373C87.5144 5.92226 87.3145 6.03345 87.1071 6.23729C86.9336 6.40778 86.811 6.59494 86.7394 6.79878C86.664 6.99892 86.6451 7.21017 86.6828 7.43255L85.5854 7.66604C85.51 7.288 85.5439 6.90256 85.6872 6.5097C85.8267 6.11313 86.0719 5.74251 86.4226 5.39783C86.7168 5.10875 87.0222 4.90491 87.339 4.78631C87.6558 4.6603 87.9631 4.62509 88.2611 4.68068C88.559 4.72886 88.8268 4.8697 89.0643 5.10319C89.2793 5.31444 89.4358 5.5572 89.5339 5.83146C89.6319 6.10572 89.6715 6.48931 89.6527 6.98224L89.6018 8.72231L91.3045 7.04895Z" fill="white"/>
<path d="M136.179 19.7621V19.538C140.682 18.6977 141.993 15.3927 141.993 11.4715C141.993 3.62909 138.915 0.492129 130.935 0.492129H106.938V10.2391H125.691C127.971 10.2391 129.225 10.6313 129.225 12.8719C129.225 15.1126 128.028 15.5608 125.748 15.5608H107.508V24.0754H126.147C128.427 24.0754 130.08 24.7476 130.08 26.9883C130.08 29.229 128.427 29.9572 126.147 29.9572H106.71V39.7042H132.246C140.796 39.7042 143.076 36.0071 143.076 28.7248C143.076 23.6833 141.822 20.7704 136.179 19.7621Z" fill="#434242"/>
<path d="M143.66 39.7042H157.34L166.973 13.7682C167.144 13.5441 167.315 12.8159 167.6 12.8159C167.885 12.8159 168.056 13.5441 168.227 13.7682L177.86 39.7042H191.54L176.207 4.07723C174.554 0.26806 170.051 0.0439939 167.6 0.0439939C165.149 0.0439939 160.646 0.26806 158.993 4.07723L143.66 39.7042Z" fill="#434242"/>
<path d="M192.088 39.7042H205.654L208.788 31.6377H223.153L226.288 39.7042H239.854L225.09 4.80546C223.267 0.436112 219.733 0.0439939 215.971 0.0439939C209.815 0.0439939 208.104 1.89256 206.851 4.80546L192.088 39.7042ZM215.343 12.1997C215.514 11.8076 215.8 11.3595 215.971 11.3595C216.142 11.3595 216.427 11.8076 216.598 12.1997L220.474 23.0111H211.467L215.343 12.1997Z" fill="#434242"/>
<path d="M260.716 39.7042V10.2391H274.966V0.492129H233.584V10.2391H247.834V39.7042H260.716Z" fill="#434242"/>
<path d="M268.681 39.7042H282.247L285.382 31.6377H299.746L302.881 39.7042H316.447L301.684 4.80546C299.86 0.436112 296.326 0.0439939 292.564 0.0439939C286.408 0.0439939 284.698 1.89256 283.444 4.80546L268.681 39.7042ZM291.937 12.1997C292.108 11.8076 292.393 11.3595 292.564 11.3595C292.735 11.3595 293.02 11.8076 293.191 12.1997L297.067 23.0111H288.061L291.937 12.1997Z" fill="#434242"/>
<path d="M331.031 39.7042V28.3887H347.048C356.168 28.3887 358.448 23.3472 358.448 14.3844C358.448 5.42165 356.168 0.492129 347.048 0.492129H324.419C320.429 0.492129 318.149 2.73282 318.149 6.65403V39.7042H331.031ZM331.031 18.6417V12.7039C331.031 11.0234 331.829 10.2391 333.539 10.2391H340.094C343.514 10.2391 345.224 11.0234 345.224 14.3844C345.224 17.7454 343.514 18.6417 340.094 18.6417H331.031Z" fill="#434242"/>
<path d="M363.014 0.492129V33.5423C363.014 37.4635 365.294 39.7042 369.284 39.7042H391.913C401.033 39.7042 403.313 35.3349 403.313 26.9323C403.313 18.5297 401.033 14.0483 391.913 14.0483H375.896V0.492129H363.014ZM384.959 23.7953C388.379 23.7953 390.089 24.1314 390.089 26.9323C390.089 29.7331 388.379 29.9572 384.959 29.9572H378.404C376.694 29.9572 375.896 29.173 375.896 27.4924V23.7953H384.959Z" fill="#434242"/>
<path d="M105.816 45.3012V53.069H108.472V47.0938H113.768V53.069H116.424V45.3012H105.816Z" fill="#A50000"/>
<path d="M120.815 45.3012H118.159V56.2138H120.815V51.9997C121.103 52.4557 121.951 53.069 123.119 53.069H125.503C127.871 53.069 128.959 51.7167 128.959 50.0185V48.3203C128.959 46.339 127.727 45.3012 125.503 45.3012H123.103C121.887 45.3012 121.263 45.8201 120.815 46.229V45.3012ZM126.303 49.8141C126.303 50.8047 125.711 51.2764 124.447 51.2764H122.543C121.375 51.2764 120.815 50.7575 120.815 49.8141V48.5561C120.815 47.6284 121.375 47.0938 122.543 47.0938H124.447C125.711 47.0938 126.303 47.597 126.303 48.5561V49.8141Z" fill="#A50000"/>
<path d="M133.882 45.2698C131.546 45.2698 130.41 46.6692 130.41 48.3832V50.0028C130.41 51.7953 131.658 53.069 133.882 53.069H137.594C139.85 53.069 141.05 51.811 141.05 50.0342V48.3832C141.05 46.6535 139.898 45.2698 137.578 45.2698H133.882ZM138.394 48.5876V49.8298C138.394 50.8676 137.85 51.2764 136.682 51.2764H134.874C133.642 51.2764 133.066 50.8204 133.066 49.8455V48.5719C133.066 47.5655 133.642 47.0623 134.874 47.0623H136.682C137.85 47.0623 138.394 47.6756 138.394 48.5876Z" fill="#A50000"/>
<path d="M142.738 53.069H146.594L150.498 47.0938H150.85V53.069H153.234V45.3012H149.442L145.41 51.2764H145.122V45.3012H142.738V53.069Z" fill="#A50000"/>
<path d="M157.773 53.069H161.549C163.629 53.069 164.733 52.5029 164.733 50.9462C164.733 50.0028 164.349 49.3738 163.485 49.1537C164.221 48.8863 164.525 48.2731 164.525 47.5341C164.525 46.0088 163.805 45.2698 161.389 45.2698H158.189C155.789 45.2698 154.989 45.9145 154.989 47.7228H157.373C157.373 47.1095 157.821 46.8894 158.701 46.8894H161.165C161.917 46.8894 162.141 47.1881 162.141 47.5341C162.141 47.88 162.029 48.3203 161.229 48.3203H158.765V49.7669H161.229C162.109 49.7669 162.365 50.1128 162.365 50.616C162.365 51.1821 161.901 51.4494 161.293 51.4494H158.029C157.309 51.4494 157.149 51.0877 157.149 50.6003H154.765C154.765 52.2828 155.629 53.069 157.773 53.069Z" fill="#A50000"/>
<path d="M166.061 53.069H172.893C174.941 53.069 176.061 52.5029 176.061 50.9462C176.061 50.0028 175.677 49.3738 174.813 49.1537C175.549 48.8863 175.853 48.2731 175.853 47.5341C175.853 46.0088 175.149 45.3012 172.733 45.3012H166.061V53.069ZM168.717 49.7669H172.557C173.437 49.7669 173.693 50.1128 173.693 50.616C173.693 51.1821 173.229 51.4494 172.621 51.4494H168.717V49.7669ZM168.717 46.9208H172.493C173.245 46.9208 173.469 47.1881 173.469 47.5341C173.469 47.88 173.357 48.3203 172.557 48.3203H168.717V46.9208Z" fill="#A50000"/>
<path d="M181.069 45.2698C178.733 45.2698 177.597 46.6692 177.597 48.3832V50.0028C177.597 51.7953 178.845 53.069 181.069 53.069H184.781C187.037 53.069 188.237 51.811 188.237 50.0342V48.3832C188.237 46.6535 187.085 45.2698 184.765 45.2698H181.069ZM185.581 48.5876V49.8298C185.581 50.8676 185.037 51.2764 183.869 51.2764H182.061C180.829 51.2764 180.253 50.8204 180.253 49.8455V48.5719C180.253 47.5655 180.829 47.0623 182.061 47.0623H183.869C185.037 47.0623 185.581 47.6756 185.581 48.5876Z" fill="#A50000"/>
<path d="M190.358 51.2764H189.446V55.4119H191.878V53.069H199.254V55.4119H201.686V51.2764H200.518V45.3012H191.43V48.3674C191.43 49.5939 191.11 50.5217 190.358 51.2764ZM197.862 51.2764H193.174C193.75 50.5217 193.99 49.5939 193.99 48.5719V47.0938H197.862V51.2764Z" fill="#A50000"/>
<path d="M212.977 48.0058C212.977 46.0088 211.937 45.2698 209.393 45.2698H205.793C203.649 45.2698 202.529 46.4963 202.529 48.3203V50.1914C202.529 51.7324 203.633 53.069 205.713 53.069H209.489C212.337 53.069 212.977 52.1098 212.977 50.2543H210.321C210.321 51.0091 210.145 51.2764 209.153 51.2764H206.593C205.793 51.2764 205.185 50.7732 205.185 49.9241V48.5876C205.185 47.6127 205.745 47.0623 206.673 47.0623H209.185C210.097 47.0623 210.321 47.3611 210.321 48.0058H212.977Z" fill="#A50000"/>
<path d="M217.707 53.069H220.363V47.0938H224.171V45.3012H213.899V47.0938H217.707V53.069Z" fill="#A50000"/>
<path d="M225.061 53.069H231.893C233.941 53.069 235.061 52.5029 235.061 50.9462C235.061 50.0028 234.677 49.3738 233.813 49.1537C234.549 48.8863 234.853 48.2731 234.853 47.5341C234.853 46.0088 234.149 45.3012 231.733 45.3012H225.061V53.069ZM227.717 49.7669H231.557C232.437 49.7669 232.693 50.1128 232.693 50.616C232.693 51.1821 232.229 51.4494 231.621 51.4494H227.717V49.7669ZM227.717 46.9208H231.493C232.245 46.9208 232.469 47.1881 232.469 47.5341C232.469 47.88 232.357 48.3203 231.557 48.3203H227.717V46.9208Z" fill="#A50000"/>
<path d="M243.941 48.3045H238.661C238.661 47.5498 238.965 46.8894 240.005 46.8894H242.453C243.589 46.8894 243.941 47.5498 243.941 48.3045ZM246.485 49.7512V48.4303C246.485 46.8737 245.701 45.2698 243.093 45.2698H239.317C236.949 45.2698 236.005 46.7636 236.005 48.1316V50.0971C236.005 51.7953 237.045 53.069 239.269 53.069H243.157C245.829 53.069 246.485 51.8897 246.485 50.5217H243.941C243.941 51.1349 243.637 51.4494 242.997 51.4494H239.925C238.837 51.4494 238.661 50.7261 238.661 50.0499V49.7512H246.485Z" fill="#A50000"/>
<path d="M250.425 45.3012H247.769V53.069H250.425V49.7197H255.721V53.069H258.377V45.3012H255.721V47.9272H250.425V45.3012Z" fill="#A50000"/>
<path d="M262.8 45.3012H260.144V53.069H262.8V49.7197H268.096V53.069H270.752V45.3012H268.096V47.9272H262.8V45.3012Z" fill="#A50000"/>
<path d="M275.191 47.5498V47.2982C275.191 46.9994 275.367 46.9208 276.215 46.9208H279.031C280.039 46.9208 280.487 47.0781 280.487 47.8643V48.8392C280.199 48.336 279.799 48.0844 279.015 48.0844H275.799C273.319 48.0844 272.599 48.8549 272.599 50.1443V51.0877C272.599 52.44 273.639 53.069 275.255 53.069H278.807C279.767 53.069 280.039 52.7702 280.487 52.1884V53.069H283.143V48.0372C283.143 46.5277 282.279 45.3012 279.783 45.3012H275.863C273.367 45.3012 272.663 46.2761 272.663 47.5498H275.191ZM276.455 49.704H279.191C280.167 49.704 280.487 49.9556 280.487 50.5845C280.487 51.2292 280.167 51.4494 279.191 51.4494H276.455C275.495 51.4494 275.191 51.2135 275.191 50.5845C275.191 49.9084 275.527 49.704 276.455 49.704Z" fill="#A50000"/>
<path d="M292.846 50.2858V53.069H295.502V45.3012H287.614C285.998 45.3012 284.942 45.9145 284.942 47.2668V48.2259C284.942 49.4681 285.95 50.2858 287.534 50.2858L284.734 53.069H287.998L290.59 50.2858H292.846ZM292.846 48.6662H288.814C287.886 48.6662 287.534 48.4461 287.534 47.7699C287.534 47.141 287.854 46.9208 288.814 46.9208H292.846V48.6662Z" fill="#A50000"/>
<path d="M305.361 45.3012H302.705V53.069H305.361V49.704H306.337L309.169 53.069H312.337L308.305 48.9021L312.001 45.3012H309.009L306.337 48.0844H305.361V45.3012Z" fill="#A50000"/>
<path d="M316.6 45.2698C314.264 45.2698 313.128 46.6692 313.128 48.3832V50.0028C313.128 51.7953 314.376 53.069 316.6 53.069H320.312C322.568 53.069 323.768 51.811 323.768 50.0342V48.3832C323.768 46.6535 322.616 45.2698 320.296 45.2698H316.6ZM321.112 48.5876V49.8298C321.112 50.8676 320.568 51.2764 319.4 51.2764H317.592C316.36 51.2764 315.784 50.8204 315.784 49.8455V48.5719C315.784 47.5655 316.36 47.0623 317.592 47.0623H319.4C320.568 47.0623 321.112 47.6756 321.112 48.5876Z" fill="#A50000"/>
<path d="M325.713 45.3012V53.069H328.097V47.0938H328.433L331.057 53.069H333.793L336.417 47.0938H336.753V53.069H339.137V45.3012H335.137L332.609 51.2764H332.241L329.713 45.3012H325.713Z" fill="#A50000"/>
<path d="M340.894 45.3012V53.069H343.55V47.0938H348.846V53.069H351.502V45.3012H340.894Z" fill="#A50000"/>
<path d="M355.941 47.5498V47.2982C355.941 46.9994 356.117 46.9208 356.965 46.9208H359.781C360.789 46.9208 361.237 47.0781 361.237 47.8643V48.8392C360.949 48.336 360.549 48.0844 359.765 48.0844H356.549C354.069 48.0844 353.349 48.8549 353.349 50.1443V51.0877C353.349 52.44 354.389 53.069 356.005 53.069H359.557C360.517 53.069 360.789 52.7702 361.237 52.1884V53.069H363.893V48.0372C363.893 46.5277 363.029 45.3012 360.533 45.3012H356.613C354.117 45.3012 353.413 46.2761 353.413 47.5498H355.941ZM357.205 49.704H359.941C360.917 49.704 361.237 49.9556 361.237 50.5845C361.237 51.2292 360.917 51.4494 359.941 51.4494H357.205C356.245 51.4494 355.941 51.2135 355.941 50.5845C355.941 49.9084 356.277 49.704 357.205 49.704Z" fill="#A50000"/>
<path d="M368.284 45.3012H365.628V53.069H368.284V49.7197H373.58V53.069H376.236V45.3012H373.58V47.9272H368.284V45.3012Z" fill="#A50000"/>
<path d="M378.019 53.069H381.875L385.779 47.0938H386.131V53.069H388.515V45.3012H384.723L380.691 51.2764H380.403V45.3012H378.019V53.069Z" fill="#A50000"/>
<path d="M398.19 50.2858V53.069H400.846V45.3012H392.958C391.342 45.3012 390.286 45.9145 390.286 47.2668V48.2259C390.286 49.4681 391.294 50.2858 392.878 50.2858L390.078 53.069H393.342L395.934 50.2858H398.19ZM398.19 48.6662H394.158C393.23 48.6662 392.878 48.4461 392.878 47.7699C392.878 47.141 393.198 46.9208 394.158 46.9208H398.19V48.6662Z" fill="#A50000"/>
</svg>
